<svg width="50" height="51" viewBox="0 0 50 51" fill="none" xmlns="http://www.w3.org/2000/svg">
<g clip-path="url(#clip0_1_37)">
<mask id="mask0_1_37" style="mask-type:luminance" maskUnits="userSpaceOnUse" x="0" y="0" width="50" height="51">
<path d="M0 0.350098H50V50.3501H0V0.350098Z" fill="white"/>
</mask>
<g mask="url(#mask0_1_37)">
<path d="M25 50.3501C38.8075 50.3501 50 39.1576 50 25.3501C50 11.5426 38.8075 0.350098 25 0.350098C11.1925 0.350098 0 11.5426 0 25.3501C0 39.1576 11.1925 50.3501 25 50.3501Z" fill="#FF0002"/>
<path d="M37.1625 21.6627C36.4062 20.8827 35.3312 20.4564 34.0187 20.4564C32.3875 20.4564 31.135 21.1189 30.4137 22.3602V16.2002H26.6312V33.0802H30.4137V27.1452C30.4137 25.7627 30.6975 24.8764 31.1237 24.3564C31.5362 23.8364 32.1162 23.6352 32.7425 23.6352C33.2987 23.6352 33.735 23.8127 34.0425 24.1314C34.35 24.4627 34.5275 24.9714 34.5275 25.6802V33.0677H38.31V24.9352C38.31 23.5527 37.9075 22.4289 37.1637 21.6602L37.1625 21.6627ZM20.2487 20.4564C18.6175 20.4564 17.3637 21.1189 16.6437 22.3602V16.2002H12.8612V33.0802H16.6437V27.1452C16.6437 25.7627 16.9262 24.8764 17.3525 24.3564C17.765 23.8364 18.345 23.6352 18.9725 23.6352C19.5275 23.6352 19.965 23.8127 20.2725 24.1314C20.5787 24.4627 20.7562 24.9714 20.7562 25.6802V33.0677H24.5387V24.9352C24.5387 23.5527 24.1375 22.4289 23.3812 21.6489C22.6362 20.8689 21.56 20.4564 20.2487 20.4564Z" fill="white"/>
</g>
</g>
<defs>
<clipPath id="clip0_1_37">
<rect width="50" height="50" fill="white" transform="translate(0 0.350098)"/>
</clipPath>
</defs>
</svg>
